<mxfile host="app.diagrams.net" agent="Mozilla/5.0 (Windows NT 10.0; Win64; x64) AppleWebKit/537.36 (KHTML, like Gecko) Chrome/127.0.0.0 Safari/537.36" version="24.7.7">
  <diagram name="Page-1" id="dqOYltRqPko2jnYy4Hma">
    <mxGraphModel dx="794" dy="458" grid="1" gridSize="10" guides="1" tooltips="1" connect="1" arrows="1" fold="1" page="1" pageScale="1" pageWidth="850" pageHeight="1100" math="0" shadow="0">
      <root>
        <mxCell id="0" />
        <mxCell id="1" parent="0" />
        <mxCell id="qoZ0K47is2WwGKn8lz6A-1" value="int i = 2" style="whiteSpace=wrap;html=1;aspect=fixed;fontSize=20;fontStyle=1" parent="1" vertex="1">
          <mxGeometry x="100" y="220" width="80" height="80" as="geometry" />
        </mxCell>
        <mxCell id="qoZ0K47is2WwGKn8lz6A-2" style="edgeStyle=orthogonalEdgeStyle;rounded=0;orthogonalLoop=1;jettySize=auto;html=1;entryX=0;entryY=0;entryDx=0;entryDy=0;" parent="1" source="qoZ0K47is2WwGKn8lz6A-3" target="qoZ0K47is2WwGKn8lz6A-4" edge="1">
          <mxGeometry relative="1" as="geometry" />
        </mxCell>
        <mxCell id="qoZ0K47is2WwGKn8lz6A-3" value="m" style="whiteSpace=wrap;html=1;aspect=fixed;fontSize=20;fontStyle=1" parent="1" vertex="1">
          <mxGeometry x="130" y="140" width="40" height="40" as="geometry" />
        </mxCell>
        <mxCell id="qoZ0K47is2WwGKn8lz6A-4" value="a (pointer to a test*)" style="rounded=0;whiteSpace=wrap;html=1;fontSize=20;fontStyle=1" parent="1" vertex="1">
          <mxGeometry x="250" y="140" width="120" height="120" as="geometry" />
        </mxCell>
      </root>
    </mxGraphModel>
  </diagram>
</mxfile>
